<svg viewBox="0 0 1080 1350" xmlns="http://www.w3.org/2000/svg"><defs><radialGradient id="vig" cx="50%" cy="30%" r="86%"><stop offset="0%" stop-color="#FBF8F2"/><stop offset="100%" stop-color="#F4F1EA"/></radialGradient><linearGradient id="topbar" x1="0" y1="0" x2="1" y2="0"><stop offset="0%" stop-color="#1B2430"/><stop offset="60%" stop-color="#0E7C66"/><stop offset="100%" stop-color="#15A07E"/></linearGradient><pattern id="grid" width="32" height="32" patternUnits="userSpaceOnUse"><circle cx="1.5" cy="1.5" r="1.1" fill="#000000" fill-opacity="0.05"/></pattern><filter id="cs" x="-30%" y="-30%" width="160%" height="170%"><feDropShadow dx="0" dy="5" stdDeviation="10" flood-color="#1B2430" flood-opacity="0.12"/></filter></defs><rect width="1080" height="1350" fill="#F4F1EA"/><rect width="1080" height="1350" fill="url(#vig)"/><rect width="1080" height="1350" fill="url(#grid)"/><rect x="0" y="0" width="1080" height="10" fill="url(#topbar)"/><rect x="80" y="96" width="191.0" height="36" rx="18" fill="none" stroke="#0E7C66" stroke-width="1.4"/><text x="175.5" y="120" font-family="'JetBrains Mono','monospace'" font-size="15" fill="#0E7C66" text-anchor="middle" letter-spacing="1">AI ENGINEERING</text><text x="80" y="210" font-family="'Inter ExtraBold','Inter',sans-serif" font-weight="800" font-size="54" fill="#1B2430" letter-spacing="-1">I was wrong about what</text><text x="80" y="268" font-family="'Inter ExtraBold','Inter',sans-serif" font-weight="800" font-size="54" fill="#1B2430" letter-spacing="-1">makes AI hard.</text><text x="80" y="356" font-family="'Inter','sans-serif'" font-size="25" fill="#46535F">Everyone obsesses over the model.</text><text x="80" y="390" font-family="'Inter','sans-serif'" font-size="25" fill="#46535F">Almost no one talks about what surrounds it.</text><rect x="80" y="442" width="920" height="124" rx="14" fill="#EAF3EF" stroke="#E4DFD4" stroke-width="1" filter="url(#cs)"/><rect x="80" y="442" width="7" height="124" rx="3" fill="#0E7C66"/><text x="114" y="494" font-family="'Inter','sans-serif'" font-weight="700" font-size="26" fill="#1B2430">The model is ~10% of the work.</text><text x="114" y="534" font-family="'Inter','sans-serif'" font-weight="700" font-size="26" fill="#1B2430">The harness is the other 90%.</text><circle cx="540" cy="880" r="272" fill="#ECEADF" stroke="#E4DFD4" stroke-width="2"/><line x1="540.0" y1="798.0" x2="540.0" y2="642.0" stroke="#0E7C66" stroke-width="1.6" stroke-opacity="0.5"/><line x1="611.014083110324" y1="839.0" x2="746.1140461006964" y2="761.0" stroke="#0E7C66" stroke-width="1.6" stroke-opacity="0.5"/><line x1="611.014083110324" y1="921.0" x2="746.1140461006964" y2="999.0" stroke="#0E7C66" stroke-width="1.6" stroke-opacity="0.5"/><line x1="540.0" y1="962.0" x2="540.0" y2="1118.0" stroke="#0E7C66" stroke-width="1.6" stroke-opacity="0.5"/><line x1="468.985916889676" y1="921.0" x2="333.88595389930356" y2="999.0" stroke="#0E7C66" stroke-width="1.6" stroke-opacity="0.5"/><line x1="468.98591688967605" y1="839.0" x2="333.8859538993036" y2="761.0" stroke="#0E7C66" stroke-width="1.6" stroke-opacity="0.5"/><circle cx="540" cy="880" r="80" fill="#EAF3EF" stroke="#0E7C66" stroke-width="2.5"/><text x="540" y="876" font-family="'Inter','sans-serif'" font-size="16" fill="#6B7682" text-anchor="middle">THE</text><text x="540" y="900" font-family="'Inter ExtraBold','Inter',sans-serif" font-weight="800" font-size="26" fill="#1B2430" text-anchor="middle">MODEL</text><circle cx="540" cy="642" r="30" fill="#FFFFFF" stroke="#0E7C66" stroke-width="1.8" filter="url(#cs)"/><circle cx="531.0" cy="634.0" r="3.5" fill="#0E7C66"/><circle cx="531.0" cy="650.0" r="3.5" fill="#0E7C66"/><circle cx="550.0" cy="642.0" r="3.5" fill="#0E7C66"/><path d="M531.0 634.0 Q540.0 642.0 550.0 642.0 M531.0 650.0 Q540.0 642.0 550.0 642.0" fill="none" stroke="#0E7C66" stroke-width="2"/><text x="540.0" y="589.0" font-family="'Inter','sans-serif'" font-weight="700" font-size="18" fill="#1B2430" text-anchor="middle">Orchestration</text><circle cx="746" cy="761" r="30" fill="#FFFFFF" stroke="#0E7C66" stroke-width="1.8" filter="url(#cs)"/><rect x="734.1140461006964" y="755.0" width="16" height="14" rx="3" fill="none" stroke="#0E7C66" stroke-width="2.2"/><line x1="740.1140461006964" y1="749.0" x2="740.1140461006964" y2="755.0" stroke="#0E7C66" stroke-width="2.2"/><line x1="746.1140461006964" y1="749.0" x2="746.1140461006964" y2="755.0" stroke="#0E7C66" stroke-width="2.2"/><line x1="750.1140461006964" y1="762.0" x2="760.1140461006964" y2="762.0" stroke="#0E7C66" stroke-width="2.2"/><text x="796.3435195201939" y="737.0" font-family="'Inter','sans-serif'" font-weight="700" font-size="18" fill="#1B2430">Tools / APIs</text><circle cx="746" cy="999" r="30" fill="#FFFFFF" stroke="#0E7C66" stroke-width="1.8" filter="url(#cs)"/><circle cx="746.1140461006964" cy="999.0" r="13" fill="none" stroke="#0E7C66" stroke-width="2.2"/><polyline points="740.1140461006964,999.0 745.1140461006964,1004.0 753.1140461006964,993.0" fill="none" stroke="#0E7C66" stroke-width="2.4" stroke-linecap="round" stroke-linejoin="round"/><text x="796.3435195201939" y="1033.0" font-family="'Inter','sans-serif'" font-weight="700" font-size="18" fill="#1B2430">Evaluators</text><circle cx="540" cy="1118" r="30" fill="#FFFFFF" stroke="#0E7C66" stroke-width="1.8" filter="url(#cs)"/><ellipse cx="540.0" cy="1109.0" rx="13" ry="5" fill="none" stroke="#0E7C66" stroke-width="2.2"/><path d="M527.0 1109.0 V1127.0 Q540.0 1133.0 553.0 1127.0 V1109.0" fill="none" stroke="#0E7C66" stroke-width="2.2"/><text x="540.0" y="1181.0" font-family="'Inter','sans-serif'" font-weight="700" font-size="18" fill="#1B2430" text-anchor="middle">Memory</text><circle cx="334" cy="999" r="30" fill="#FFFFFF" stroke="#0E7C66" stroke-width="1.8" filter="url(#cs)"/><path d="M333.88595389930356 986.0 L345.88595389930356 992.0 L345.88595389930356 1002.0 Q345.88595389930356 1012.0 333.88595389930356 1015.0 Q321.88595389930356 1012.0 321.88595389930356 1002.0 L321.88595389930356 992.0 Z" fill="none" stroke="#0E7C66" stroke-width="2.2"/><text x="283.65648047980613" y="1033.0" font-family="'Inter','sans-serif'" font-weight="700" font-size="18" fill="#1B2430" text-anchor="end">Guardrails</text><circle cx="334" cy="761" r="30" fill="#FFFFFF" stroke="#0E7C66" stroke-width="1.8" filter="url(#cs)"/><rect x="320.8859538993036" y="749.0" width="11" height="11" rx="2" fill="none" stroke="#0E7C66" stroke-width="2.2"/><rect x="335.8859538993036" y="762.0" width="11" height="11" rx="2" fill="none" stroke="#0E7C66" stroke-width="2.2"/><rect x="320.8859538993036" y="762.0" width="11" height="11" rx="2" fill="#0E7C66"/><text x="283.6564804798062" y="737.0" font-family="'Inter','sans-serif'" font-weight="700" font-size="18" fill="#1B2430" text-anchor="end">Skills</text><line x1="80" y1="1238" x2="1000" y2="1238" stroke="#E4DFD4" stroke-width="1"/><circle cx="110" cy="1288" r="26" fill="#0E7C66"/><text x="110" y="1296" font-family="'Inter ExtraBold','Inter',sans-serif" font-weight="800" font-size="22" fill="#FFFFFF" text-anchor="middle">E</text><text x="150" y="1284" font-family="'Inter','sans-serif'" font-weight="700" font-size="22" fill="#1B2430">Eric Sandhu</text><text x="150" y="1308" font-family="'JetBrains Mono','monospace'" font-size="14.5" fill="#94A0AB">Building with AI · sharing what I learn</text><text x="1000" y="1294" font-family="'JetBrains Mono','monospace'" font-size="18" fill="#0E7C66" text-anchor="end">@eric-sandhu</text></svg>