<svg viewBox="0 0 1080 1350" xmlns="http://www.w3.org/2000/svg"><defs><radialGradient id="vig" cx="50%" cy="34%" r="84%"><stop offset="0%" stop-color="#FBF8F2"/><stop offset="100%" stop-color="#F4F1EA"/></radialGradient><pattern id="grid" width="32" height="32" patternUnits="userSpaceOnUse"><circle cx="1.5" cy="1.5" r="1.1" fill="#000000" fill-opacity="0.05"/></pattern><filter id="cs" x="-30%" y="-30%" width="160%" height="170%"><feDropShadow dx="0" dy="4" stdDeviation="9" flood-color="#1B2430" flood-opacity="0.10"/></filter></defs><rect width="1080" height="1350" fill="#F4F1EA"/><rect width="1080" height="1350" fill="url(#vig)"/><rect width="1080" height="1350" fill="url(#grid)"/><text x="80" y="116" font-family="'JetBrains Mono','monospace'" font-size="18" fill="#0E7C66" letter-spacing="1">mrk18 · THE AI CMO DOMAIN</text><text x="1000" y="116" font-family="'JetBrains Mono','monospace'" font-size="18" fill="#94A0AB" text-anchor="end">DAY 01</text><line x1="80" y1="140" x2="1000" y2="140" stroke="#E4DFD4" stroke-width="1"/><circle cx="112" cy="274" r="6" fill="#6B7682" fill-opacity="0.5"/><circle cx="132" cy="306" r="6" fill="#6B7682" fill-opacity="0.5"/><circle cx="104" cy="322" r="6" fill="#6B7682" fill-opacity="0.5"/><circle cx="142" cy="292" r="6" fill="#6B7682" fill-opacity="0.5"/><circle cx="124" cy="264" r="6" fill="#6B7682" fill-opacity="0.5"/><circle cx="150" cy="316" r="6" fill="#6B7682" fill-opacity="0.5"/><line x1="172" y1="300" x2="196" y2="300" stroke="#0E7C66" stroke-width="3"/><path d="M194 293 L206 300 L194 307 Z" fill="#0E7C66"/><circle cx="246" cy="300" r="30" fill="none" stroke="#0E7C66" stroke-width="2.5"/><circle cx="246" cy="300" r="16" fill="none" stroke="#0E7C66" stroke-width="2.5"/><circle cx="246" cy="300" r="5" fill="#0E7C66"/><text x="80" y="470" font-family="'Inter ExtraBold','Inter',sans-serif" font-weight="800" font-size="62" fill="#1B2430" letter-spacing="-1">Most founder marketing</text><text x="80" y="538" font-family="'Inter ExtraBold','Inter',sans-serif" font-weight="800" font-size="62" fill="#1B2430" letter-spacing="-1">is activity, not</text><text x="80" y="606" font-family="'Inter ExtraBold','Inter',sans-serif" font-weight="800" font-size="62" fill="#1B2430" letter-spacing="-1">results.</text><line x1="80" y1="678" x2="300" y2="678" stroke="#0E7C66" stroke-width="3"/><text x="80" y="728" font-family="'Inter','sans-serif'" font-size="25" fill="#46535F">And the gap between the two stays invisible — until</text><text x="80" y="761" font-family="'Inter','sans-serif'" font-size="25" fill="#46535F">it gets expensive.</text><text x="1012" y="1170" font-family="'Inter ExtraBold','Inter',sans-serif" font-weight="800" font-size="300" fill="none" stroke="#0E7C66" stroke-width="2" stroke-opacity="0.10" text-anchor="end">01</text><line x1="80" y1="1248" x2="1000" y2="1248" stroke="#E4DFD4" stroke-width="1"/><text x="80" y="1292" font-family="'JetBrains Mono','monospace'" font-size="18" fill="#94A0AB">mrk18 — the AI CMO domain</text><text x="1000" y="1292" font-family="'JetBrains Mono','monospace'" font-size="18" fill="#0E7C66" text-anchor="end">@mrk18hq</text></svg>